<svg width="350" height="125" viewBox="0 0 350 125" fill="none" xmlns="http://www.w3.org/2000/svg">
<mask id="mask0_273_2" style="mask-type:luminance" maskUnits="userSpaceOnUse" x="0" y="0" width="169" height="116">
<path d="M0.134766 0H168.682V115.693H0.134766V0Z" fill="white"/>
</mask>
<g mask="url(#mask0_273_2)">
<path d="M362.926 109.583C364.734 109.583 366.197 111.047 366.197 112.854C366.197 114.656 364.734 116.125 362.926 116.125H27.2442C24.0098 116.125 21.0723 114.802 18.9421 112.677C16.8171 110.547 15.4942 107.609 15.4942 104.375V63.0781H9.67126C7.39522 63.0781 5.52543 62.4844 4.06188 61.4948C2.44209 60.401 1.36918 58.8542 0.832718 57.0938L0.82751 57.099C0.32751 55.4635 0.311885 53.6667 0.759801 51.9219C1.29626 49.8385 2.49418 47.8125 4.3223 46.2396L54.3692 3.09375C56.765 1.03125 59.8744 0 62.9421 0C66.0202 0 69.1244 1.03125 71.5202 3.09375L105.156 32.1875C106.515 33.3646 106.661 35.4219 105.489 36.7813C104.312 38.1458 102.249 38.2969 100.89 37.1146L67.2546 8.02604C66.1036 7.03646 64.5411 6.53646 62.9473 6.53646C61.3483 6.53646 59.7858 7.03646 58.6348 8.02604L8.58272 51.1719C7.79626 51.849 7.28584 52.6927 7.0723 53.5313C6.92126 54.1198 6.91605 54.6979 7.06188 55.1823H7.05668L7.06188 55.1927C7.17126 55.5417 7.3848 55.8594 7.71293 56.0781C8.14001 56.3646 8.78584 56.5417 9.67126 56.5417H18.765C20.5723 56.5417 22.0358 58.0052 22.0358 59.8125V104.375C22.0358 105.807 22.6244 107.109 23.5671 108.052C24.5098 108.995 25.8119 109.583 27.2442 109.583H362.926Z" fill="#FF5A5F"/>
</g>
<path d="M42.3535 93.3138V53.168H49.5618V75.4388H50.2493L58.541 64.668H65.8327V65.2721L56.1035 77.8346L66.916 92.668V93.3138H59.3327L50.2493 81.2305H49.5618V93.3138H42.3535Z" fill="#202020"/>
<path d="M68.6016 93.3138V64.668H75.8099V93.3138H68.6016Z" fill="#202020"/>
<path d="M97.4505 93.8555C93.7943 93.8555 91.0807 92.4909 89.3047 89.7513L88.763 89.8555V93.3138H81.5547V53.168H88.763V68.043L89.3047 68.1471C90.2891 66.7878 91.4505 65.7826 92.7839 65.1263C94.1276 64.4596 95.7422 64.1263 97.6172 64.1263C99.9349 64.1263 101.956 64.6784 103.68 65.7721C105.414 66.8555 106.768 68.5117 107.742 70.7305C108.711 72.9544 109.201 75.7096 109.201 79.0013C109.201 82.2513 108.69 84.9961 107.68 87.2305C106.68 89.4544 105.294 91.1159 103.534 92.2096C101.768 93.3086 99.7422 93.8555 97.4505 93.8555ZM95.263 87.7513C97.3724 87.7513 98.9818 87.0534 100.096 85.6471C101.206 84.2305 101.763 82.0169 101.763 79.0013C101.763 75.9753 101.206 73.7617 100.096 72.3555C98.9818 70.9388 97.3724 70.2305 95.263 70.2305C93.2474 70.2305 91.6432 70.9596 90.4505 72.418C89.2682 73.8659 88.6797 76.0586 88.6797 79.0013C88.6797 81.9492 89.2682 84.1419 90.4505 85.5846C91.6432 87.0326 93.2474 87.7513 95.263 87.7513Z" fill="#202020"/>
<path d="M113.359 93.3138V64.668H120.359V68.918L120.901 69.0221C121.594 67.4388 122.505 66.2826 123.63 65.543C124.755 64.793 126.12 64.418 127.734 64.418C129.359 64.418 130.594 64.6888 131.443 65.2305L130.214 71.4388L129.672 71.543C129.198 71.3659 128.745 71.2305 128.318 71.1471C127.885 71.0534 127.359 71.0013 126.734 71.0013C124.734 71.0013 123.203 71.7096 122.151 73.1263C121.094 74.5326 120.568 76.793 120.568 79.918V93.3138H113.359Z" fill="#202020"/>
<path d="M133.324 93.3138V64.668H140.533V93.3138H133.324Z" fill="#202020"/>
<path d="M155.548 93.8542C153.589 93.8542 151.798 93.625 150.173 93.1667C148.548 92.7083 147.157 92.0781 146.006 91.2708C144.85 90.4688 143.995 89.5417 143.443 88.5L147.443 84.1875H147.985C148.943 85.4792 150.068 86.4479 151.36 87.0833C152.662 87.724 154.079 88.0417 155.61 88.0417C157.011 88.0417 158.068 87.7917 158.777 87.2917C159.485 86.7917 159.839 86.0729 159.839 85.125C159.839 84.4062 159.579 83.8021 159.068 83.3125C158.553 82.8125 157.725 82.4271 156.589 82.1458L152.798 81.2292C149.964 80.5625 147.886 79.5365 146.568 78.1458C145.261 76.7448 144.61 74.9688 144.61 72.8125C144.61 71.0365 145.058 69.4948 145.964 68.1875C146.881 66.8698 148.162 65.8646 149.818 65.1667C151.469 64.474 153.402 64.125 155.61 64.125C158.178 64.125 160.308 64.5 162.006 65.25C163.714 65.9896 165.037 66.9792 165.985 68.2292L162.152 72.375H161.631C160.839 71.474 159.943 70.8229 158.943 70.4167C157.943 70 156.829 69.7917 155.61 69.7917C152.761 69.7917 151.339 70.6771 151.339 72.4375C151.339 73.1771 151.6 73.7812 152.131 74.25C152.657 74.724 153.589 75.1042 154.923 75.3958L158.464 76.1667C161.365 76.7917 163.485 77.7917 164.818 79.1667C166.162 80.5417 166.839 82.3906 166.839 84.7083C166.839 86.5313 166.386 88.1354 165.485 89.5208C164.594 90.9115 163.303 91.9792 161.61 92.7292C159.912 93.4792 157.891 93.8542 155.548 93.8542Z" fill="#202020"/>
<path d="M194.387 80.6042H175.97C176.178 83.1042 176.887 84.9271 178.095 86.0625C179.303 87.1875 180.954 87.75 183.053 87.75C184.704 87.75 186.038 87.4479 187.053 86.8333C188.079 86.224 188.908 85.2917 189.533 84.0417H190.074L194.845 87.1042C193.913 89.1198 192.501 90.75 190.616 92C188.725 93.2396 186.204 93.8542 183.053 93.8542C180.095 93.8542 177.538 93.2917 175.387 92.1667C173.23 91.0417 171.564 89.3698 170.387 87.1458C169.22 84.9271 168.637 82.2083 168.637 79C168.637 75.75 169.246 73.0104 170.47 70.7708C171.704 68.5365 173.371 66.8698 175.47 65.7708C177.564 64.6771 179.918 64.125 182.533 64.125C186.585 64.125 189.689 65.2031 191.845 67.3542C193.996 69.4948 195.074 72.6406 195.074 76.7917C195.074 78.3073 195.022 79.474 194.928 80.2917L194.387 80.6042ZM188.199 75.9583C188.126 73.7812 187.621 72.1979 186.678 71.2083C185.73 70.2083 184.35 69.7083 182.533 69.7083C178.908 69.7083 176.767 71.7917 176.116 75.9583H188.199Z" fill="#FF5A5F"/>
<path d="M214.421 93.3138H205.858L195.254 64.668H202.796L209.9 85.0846H210.504L217.65 64.668H225.004L214.421 93.3138Z" fill="#FF5A5F"/>
<path d="M230.721 61.2305C229.429 61.2305 228.372 60.8451 227.554 60.0638C226.747 59.2721 226.346 58.2513 226.346 57.0013C226.346 55.7826 226.747 54.7721 227.554 53.9805C228.372 53.1888 229.429 52.793 230.721 52.793C231.596 52.793 232.367 52.9805 233.033 53.3555C233.71 53.7201 234.231 54.2201 234.596 54.8555C234.971 55.4805 235.158 56.1992 235.158 57.0013C235.158 57.8242 234.971 58.5534 234.596 59.1888C234.231 59.8294 233.71 60.3294 233.033 60.6888C232.367 61.0534 231.596 61.2305 230.721 61.2305ZM227.137 93.3138V64.668H234.346V93.3138H227.137Z" fill="#FF5A5F"/>
<path d="M240.064 93.3125V64.6667H246.981V68.5208L247.523 68.625C248.45 67.0833 249.544 65.9531 250.794 65.2292C252.054 64.4948 253.669 64.125 255.627 64.125C257.794 64.125 259.528 64.5573 260.835 65.4167C262.153 66.2656 263.117 67.5156 263.731 69.1667H264.273C265.158 67.4479 266.299 66.1771 267.689 65.3542C269.075 64.5365 270.814 64.125 272.898 64.125C278.825 64.125 281.794 67.4323 281.794 74.0417V93.3125H274.606V74.9583C274.606 73.2812 274.273 72.0729 273.606 71.3333C272.95 70.5833 271.903 70.2083 270.46 70.2083C266.502 70.2083 264.523 72.849 264.523 78.125V93.3125H257.335V74.9583C257.335 73.2812 257.002 72.0729 256.335 71.3333C255.669 70.5833 254.606 70.2083 253.148 70.2083C251.299 70.2083 249.856 70.8281 248.814 72.0625C247.783 73.3021 247.273 75.2656 247.273 77.9583V93.3125H240.064Z" fill="#FF5A5F"/>
<path d="M186.09 108.844C186.09 109.609 185.924 110.219 185.59 110.677C185.268 111.125 184.788 111.427 184.153 111.594L186.465 115.573H184.32L182.09 111.74H181.57V115.573H179.674V106.156H182.882C183.934 106.156 184.736 106.396 185.278 106.865C185.82 107.339 186.09 108 186.09 108.844ZM181.57 107.76V110.135H182.882C183.325 110.135 183.653 110.052 183.861 109.885C184.08 109.708 184.195 109.375 184.195 108.885C184.195 108.552 184.08 108.281 183.861 108.073C183.653 107.865 183.325 107.76 182.882 107.76H181.57Z" fill="white"/>
<path d="M192.036 111.656V113.969H196.391V115.573H190.141V106.156H196.266V107.76H192.036V110.073H196.057V111.656H192.036Z" fill="white"/>
<path d="M205.914 113.552H202.56L201.831 115.573H199.789L203.227 106.156H205.247L208.685 115.573H206.643L205.914 113.552ZM203.164 111.948H205.289L204.227 108.906L203.164 111.948Z" fill="white"/>
<path d="M214.232 113.969H218.065V115.573H212.336V106.156H214.232V113.969Z" fill="white"/>
<path d="M230.704 111.656V113.969H235.059V115.573H228.809V106.156H234.934V107.76H230.704V110.073H234.725V111.656H230.704Z" fill="white"/>
<path d="M245.75 112.823C245.75 113.38 245.656 113.844 245.479 114.219C245.297 114.583 245.042 114.875 244.708 115.094C244.385 115.318 244.01 115.479 243.583 115.573C243.151 115.656 242.698 115.698 242.229 115.698C241.547 115.698 240.906 115.615 240.313 115.448C239.729 115.271 239.208 115.052 238.75 114.802L239.5 113.281C239.75 113.438 239.979 113.568 240.188 113.677C240.396 113.792 240.604 113.88 240.813 113.948C241.021 114.005 241.234 114.047 241.458 114.073C241.693 114.104 241.943 114.115 242.208 114.115C242.693 114.115 243.089 114.026 243.396 113.844C243.698 113.667 243.854 113.344 243.854 112.885C243.854 112.635 243.781 112.443 243.646 112.302C243.505 112.151 243.318 112.026 243.083 111.927C242.859 111.833 242.604 111.755 242.313 111.698C242.021 111.63 241.719 111.552 241.417 111.469C241.125 111.385 240.833 111.281 240.542 111.156C240.25 111.031 239.984 110.865 239.75 110.656C239.526 110.438 239.344 110.156 239.208 109.823C239.068 109.479 239 109.052 239 108.552C239 108.125 239.083 107.755 239.25 107.448C239.417 107.13 239.646 106.865 239.938 106.656C240.24 106.438 240.589 106.276 240.979 106.177C241.38 106.083 241.813 106.031 242.271 106.031C242.948 106.031 243.552 106.109 244.083 106.26C244.625 106.401 245.109 106.573 245.542 106.781L244.917 108.281C244.583 108.115 244.193 107.969 243.75 107.844C243.318 107.708 242.823 107.635 242.271 107.635C241.88 107.635 241.552 107.714 241.292 107.865C241.026 108.021 240.896 108.25 240.896 108.552C240.896 108.927 241.01 109.214 241.25 109.406C241.5 109.589 241.797 109.729 242.146 109.823C242.505 109.922 242.896 110.01 243.313 110.094C243.74 110.177 244.13 110.318 244.479 110.51C244.839 110.693 245.135 110.964 245.375 111.323C245.625 111.688 245.75 112.188 245.75 112.823Z" fill="white"/>
<path d="M253.86 107.76V115.573H251.964V107.76H249.443V106.156H256.36V107.76H253.86Z" fill="white"/>
<path d="M265.852 113.552H262.497L261.768 115.573H259.727L263.164 106.156H265.185L268.622 115.573H266.581L265.852 113.552ZM263.102 111.948H265.227L264.164 108.906L263.102 111.948Z" fill="white"/>
<path d="M276.378 107.76V115.573H274.482V107.76H271.961V106.156H278.878V107.76H276.378Z" fill="white"/>
<path d="M284.702 111.656V113.969H289.057V115.573H282.807V106.156H288.932V107.76H284.702V110.073H288.723V111.656H284.702Z" fill="white"/>
</svg>
