<svg xmlns="http://www.w3.org/2000/svg" xmlns:xlink="http://www.w3.org/1999/xlink" width="350" zoomAndPan="magnify" viewBox="0 0 262.5 93.749996" height="125" preserveAspectRatio="xMidYMid meet" version="1.0"><defs><g/><clipPath id="03492234f5"><path d="M 0.101562 0 L 126.511719 0 L 126.511719 86.769531 L 0.101562 86.769531 Z M 0.101562 0 " clip-rule="nonzero"/></clipPath></defs><g clip-path="url(#03492234f5)"><path fill="#ff5a5f" d="M 272.195312 82.1875 C 273.550781 82.1875 274.648438 83.285156 274.648438 84.640625 C 274.648438 85.992188 273.550781 87.09375 272.195312 87.09375 L 20.433594 87.09375 C 18.007812 87.09375 15.804688 86.101562 14.207031 84.507812 C 12.613281 82.910156 11.621094 80.707031 11.621094 78.28125 L 11.621094 47.308594 L 7.253906 47.308594 C 5.546875 47.308594 4.144531 46.863281 3.046875 46.121094 C 1.832031 45.300781 1.027344 44.140625 0.625 42.820312 L 0.621094 42.824219 C 0.246094 41.597656 0.234375 40.25 0.570312 38.941406 C 0.972656 37.378906 1.871094 35.859375 3.242188 34.679688 L 40.777344 2.320312 C 42.574219 0.773438 44.90625 0 47.207031 0 C 49.515625 0 51.84375 0.773438 53.640625 2.320312 L 78.867188 24.140625 C 79.886719 25.023438 79.996094 26.566406 79.117188 27.585938 C 78.234375 28.609375 76.6875 28.722656 75.667969 27.835938 L 50.441406 6.019531 C 49.578125 5.277344 48.40625 4.902344 47.210938 4.902344 C 46.011719 4.902344 44.839844 5.277344 43.976562 6.019531 L 6.4375 38.378906 C 5.847656 38.886719 5.464844 39.519531 5.304688 40.148438 C 5.191406 40.589844 5.1875 41.023438 5.296875 41.386719 L 5.292969 41.386719 L 5.296875 41.394531 C 5.378906 41.65625 5.539062 41.894531 5.785156 42.058594 C 6.105469 42.273438 6.589844 42.40625 7.253906 42.40625 L 14.074219 42.40625 C 15.429688 42.40625 16.527344 43.503906 16.527344 44.859375 L 16.527344 78.28125 C 16.527344 79.355469 16.96875 80.332031 17.675781 81.039062 C 18.382812 81.746094 19.359375 82.1875 20.433594 82.1875 Z M 272.195312 82.1875 " fill-opacity="1" fill-rule="nonzero"/></g><g fill="#ffffff" fill-opacity="1"><g transform="translate(28.671017, 69.984859)"><g><path d="M 3.09375 0 L 3.09375 -30.109375 L 8.5 -30.109375 L 8.5 -13.40625 L 9.015625 -13.40625 L 15.234375 -21.484375 L 20.703125 -21.484375 L 20.703125 -21.03125 L 13.40625 -11.609375 L 21.515625 -0.484375 L 21.515625 0 L 15.828125 0 L 9.015625 -9.0625 L 8.5 -9.0625 L 8.5 0 Z M 3.09375 0 "/></g></g></g><g fill="#ffffff" fill-opacity="1"><g transform="translate(48.357507, 69.984859)"><g><path d="M 3.09375 0 L 3.09375 -21.484375 L 8.5 -21.484375 L 8.5 0 Z M 3.09375 0 "/></g></g></g><g fill="#ffffff" fill-opacity="1"><g transform="translate(58.071569, 69.984859)"><g><path d="M 15.015625 0.40625 C 12.273438 0.40625 10.238281 -0.617188 8.90625 -2.671875 L 8.5 -2.59375 L 8.5 0 L 3.09375 0 L 3.09375 -30.109375 L 8.5 -30.109375 L 8.5 -18.953125 L 8.90625 -18.875 C 9.644531 -19.894531 10.515625 -20.648438 11.515625 -21.140625 C 12.523438 -21.640625 13.734375 -21.890625 15.140625 -21.890625 C 16.878906 -21.890625 18.394531 -21.476562 19.6875 -20.65625 C 20.988281 -19.84375 22.003906 -18.601562 22.734375 -16.9375 C 23.460938 -15.269531 23.828125 -13.203125 23.828125 -10.734375 C 23.828125 -8.296875 23.445312 -6.238281 22.6875 -4.5625 C 21.9375 -2.894531 20.898438 -1.648438 19.578125 -0.828125 C 18.253906 -0.00390625 16.734375 0.40625 15.015625 0.40625 Z M 13.375 -4.171875 C 14.957031 -4.171875 16.164062 -4.695312 17 -5.75 C 17.832031 -6.8125 18.25 -8.472656 18.25 -10.734375 C 18.25 -13.003906 17.832031 -14.664062 17 -15.71875 C 16.164062 -16.78125 14.957031 -17.3125 13.375 -17.3125 C 11.863281 -17.3125 10.660156 -16.765625 9.765625 -15.671875 C 8.878906 -14.585938 8.4375 -12.941406 8.4375 -10.734375 C 8.4375 -8.523438 8.878906 -6.878906 9.765625 -5.796875 C 10.660156 -4.710938 11.863281 -4.171875 13.375 -4.171875 Z M 13.375 -4.171875 "/></g></g></g><g fill="#ffffff" fill-opacity="1"><g transform="translate(81.926226, 69.984859)"><g><path d="M 3.09375 0 L 3.09375 -21.484375 L 8.34375 -21.484375 L 8.34375 -18.296875 L 8.75 -18.21875 C 9.269531 -19.40625 9.953125 -20.273438 10.796875 -20.828125 C 11.640625 -21.390625 12.664062 -21.671875 13.875 -21.671875 C 15.09375 -21.671875 16.019531 -21.46875 16.65625 -21.0625 L 15.734375 -16.40625 L 15.328125 -16.328125 C 14.972656 -16.460938 14.632812 -16.5625 14.3125 -16.625 C 13.988281 -16.695312 13.59375 -16.734375 13.125 -16.734375 C 11.625 -16.734375 10.476562 -16.203125 9.6875 -15.140625 C 8.894531 -14.085938 8.5 -12.390625 8.5 -10.046875 L 8.5 0 Z M 3.09375 0 "/></g></g></g><g fill="#ffffff" fill-opacity="1"><g transform="translate(96.899183, 69.984859)"><g><path d="M 3.09375 0 L 3.09375 -21.484375 L 8.5 -21.484375 L 8.5 0 Z M 3.09375 0 "/></g></g></g><g fill="#ffffff" fill-opacity="1"><g transform="translate(106.613241, 69.984859)"><g><path d="M 10.046875 0.40625 C 8.578125 0.40625 7.234375 0.234375 6.015625 -0.109375 C 4.796875 -0.453125 3.753906 -0.925781 2.890625 -1.53125 C 2.023438 -2.132812 1.382812 -2.828125 0.96875 -3.609375 L 3.96875 -6.84375 L 4.375 -6.84375 C 5.09375 -5.875 5.9375 -5.148438 6.90625 -4.671875 C 7.882812 -4.191406 8.945312 -3.953125 10.09375 -3.953125 C 11.144531 -3.953125 11.9375 -4.140625 12.46875 -4.515625 C 13 -4.890625 13.265625 -5.429688 13.265625 -6.140625 C 13.265625 -6.679688 13.070312 -7.132812 12.6875 -7.5 C 12.300781 -7.875 11.679688 -8.164062 10.828125 -8.375 L 7.984375 -9.0625 C 5.859375 -9.5625 4.300781 -10.332031 3.3125 -11.375 C 2.332031 -12.425781 1.84375 -13.757812 1.84375 -15.375 C 1.84375 -16.707031 2.179688 -17.863281 2.859375 -18.84375 C 3.546875 -19.832031 4.507812 -20.585938 5.75 -21.109375 C 6.988281 -21.628906 8.4375 -21.890625 10.09375 -21.890625 C 12.019531 -21.890625 13.617188 -21.609375 14.890625 -21.046875 C 16.171875 -20.492188 17.164062 -19.75 17.875 -18.8125 L 15 -15.703125 L 14.609375 -15.703125 C 14.015625 -16.378906 13.34375 -16.867188 12.59375 -17.171875 C 11.84375 -17.484375 11.007812 -17.640625 10.09375 -17.640625 C 7.957031 -17.640625 6.890625 -16.976562 6.890625 -15.65625 C 6.890625 -15.101562 7.085938 -14.648438 7.484375 -14.296875 C 7.878906 -13.941406 8.578125 -13.65625 9.578125 -13.4375 L 12.234375 -12.859375 C 14.410156 -12.390625 16 -11.640625 17 -10.609375 C 18.007812 -9.578125 18.515625 -8.191406 18.515625 -6.453125 C 18.515625 -5.085938 18.175781 -3.882812 17.5 -2.84375 C 16.832031 -1.800781 15.863281 -1 14.59375 -0.4375 C 13.320312 0.125 11.804688 0.40625 10.046875 0.40625 Z M 10.046875 0.40625 "/></g></g></g><g fill="#ff5a5f" fill-opacity="1"><g transform="translate(124.55594, 69.984859)"><g><path d="M 21.234375 -9.53125 L 7.421875 -9.53125 C 7.578125 -7.65625 8.109375 -6.289062 9.015625 -5.4375 C 9.921875 -4.59375 11.160156 -4.171875 12.734375 -4.171875 C 13.972656 -4.171875 14.972656 -4.398438 15.734375 -4.859375 C 16.503906 -5.316406 17.125 -6.015625 17.59375 -6.953125 L 18 -6.953125 L 21.578125 -4.65625 C 20.878906 -3.144531 19.820312 -1.921875 18.40625 -0.984375 C 16.988281 -0.0546875 15.097656 0.40625 12.734375 0.40625 C 10.515625 0.40625 8.597656 -0.015625 6.984375 -0.859375 C 5.367188 -1.703125 4.117188 -2.957031 3.234375 -4.625 C 2.359375 -6.289062 1.921875 -8.328125 1.921875 -10.734375 C 1.921875 -13.171875 2.378906 -15.226562 3.296875 -16.90625 C 4.222656 -18.582031 5.472656 -19.832031 7.046875 -20.65625 C 8.617188 -21.476562 10.382812 -21.890625 12.34375 -21.890625 C 15.382812 -21.890625 17.710938 -21.082031 19.328125 -19.46875 C 20.941406 -17.863281 21.75 -15.503906 21.75 -12.390625 C 21.75 -11.253906 21.710938 -10.378906 21.640625 -9.765625 Z M 16.59375 -13.015625 C 16.539062 -14.648438 16.160156 -15.835938 15.453125 -16.578125 C 14.742188 -17.328125 13.707031 -17.703125 12.34375 -17.703125 C 9.625 -17.703125 8.019531 -16.140625 7.53125 -13.015625 Z M 16.59375 -13.015625 "/></g></g></g><g fill="#ff5a5f" fill-opacity="1"><g transform="translate(146.034352, 69.984859)"><g><path d="M 14.78125 0 L 8.359375 0 L 0.40625 -21.484375 L 6.0625 -21.484375 L 11.390625 -6.171875 L 11.84375 -6.171875 L 17.203125 -21.484375 L 22.71875 -21.484375 Z M 14.78125 0 "/></g></g></g><g fill="#ff5a5f" fill-opacity="1"><g transform="translate(167.259551, 69.984859)"><g><path d="M 5.78125 -24.0625 C 4.8125 -24.0625 4.019531 -24.351562 3.40625 -24.9375 C 2.800781 -25.53125 2.5 -26.296875 2.5 -27.234375 C 2.5 -28.148438 2.800781 -28.90625 3.40625 -29.5 C 4.019531 -30.09375 4.8125 -30.390625 5.78125 -30.390625 C 6.4375 -30.390625 7.015625 -30.25 7.515625 -29.96875 C 8.023438 -29.695312 8.414062 -29.320312 8.6875 -28.84375 C 8.96875 -28.375 9.109375 -27.835938 9.109375 -27.234375 C 9.109375 -26.617188 8.96875 -26.070312 8.6875 -25.59375 C 8.414062 -25.113281 8.023438 -24.738281 7.515625 -24.46875 C 7.015625 -24.195312 6.4375 -24.0625 5.78125 -24.0625 Z M 3.09375 0 L 3.09375 -21.484375 L 8.5 -21.484375 L 8.5 0 Z M 3.09375 0 "/></g></g></g><g fill="#ff5a5f" fill-opacity="1"><g transform="translate(176.954127, 69.984859)"><g><path d="M 3.09375 0 L 3.09375 -21.484375 L 8.28125 -21.484375 L 8.28125 -18.59375 L 8.6875 -18.515625 C 9.382812 -19.671875 10.203125 -20.519531 11.140625 -21.0625 C 12.085938 -21.613281 13.296875 -21.890625 14.765625 -21.890625 C 16.390625 -21.890625 17.691406 -21.566406 18.671875 -20.921875 C 19.660156 -20.285156 20.382812 -19.347656 20.84375 -18.109375 L 21.25 -18.109375 C 21.914062 -19.398438 22.769531 -20.351562 23.8125 -20.96875 C 24.851562 -21.582031 26.15625 -21.890625 27.71875 -21.890625 C 32.164062 -21.890625 34.390625 -19.410156 34.390625 -14.453125 L 34.390625 0 L 29 0 L 29 -13.765625 C 29 -15.023438 28.75 -15.929688 28.25 -16.484375 C 27.757812 -17.046875 26.972656 -17.328125 25.890625 -17.328125 C 22.921875 -17.328125 21.4375 -15.347656 21.4375 -11.390625 L 21.4375 0 L 16.046875 0 L 16.046875 -13.765625 C 16.046875 -15.023438 15.796875 -15.929688 15.296875 -16.484375 C 14.796875 -17.046875 14 -17.328125 12.90625 -17.328125 C 11.519531 -17.328125 10.4375 -16.863281 9.65625 -15.9375 C 8.882812 -15.007812 8.5 -13.535156 8.5 -11.515625 L 8.5 0 Z M 3.09375 0 "/></g></g></g><g fill="#ffffff" fill-opacity="1"><g transform="translate(134.162283, 86.679375)"><g><path d="M 5.40625 -5.046875 C 5.40625 -4.472656 5.28125 -4.015625 5.03125 -3.671875 C 4.789062 -3.335938 4.429688 -3.109375 3.953125 -2.984375 L 5.6875 0 L 4.078125 0 L 2.40625 -2.875 L 2.015625 -2.875 L 2.015625 0 L 0.59375 0 L 0.59375 -7.0625 L 3 -7.0625 C 3.789062 -7.0625 4.390625 -6.882812 4.796875 -6.53125 C 5.203125 -6.175781 5.40625 -5.679688 5.40625 -5.046875 Z M 2.015625 -5.859375 L 2.015625 -4.078125 L 3 -4.078125 C 3.332031 -4.078125 3.578125 -4.140625 3.734375 -4.265625 C 3.898438 -4.398438 3.984375 -4.648438 3.984375 -5.015625 C 3.984375 -5.265625 3.898438 -5.46875 3.734375 -5.625 C 3.578125 -5.78125 3.332031 -5.859375 3 -5.859375 Z M 2.015625 -5.859375 "/></g></g></g><g fill="#ffffff" fill-opacity="1"><g transform="translate(142.012045, 86.679375)"><g><path d="M 2.015625 -2.9375 L 2.015625 -1.203125 L 5.28125 -1.203125 L 5.28125 0 L 0.59375 0 L 0.59375 -7.0625 L 5.1875 -7.0625 L 5.1875 -5.859375 L 2.015625 -5.859375 L 2.015625 -4.125 L 5.03125 -4.125 L 5.03125 -2.9375 Z M 2.015625 -2.9375 "/></g></g></g><g fill="#ffffff" fill-opacity="1"><g transform="translate(149.67039, 86.679375)"><g><path d="M 4.765625 -1.515625 L 2.25 -1.515625 L 1.703125 0 L 0.171875 0 L 2.75 -7.0625 L 4.265625 -7.0625 L 6.84375 0 L 5.3125 0 Z M 2.703125 -2.71875 L 4.296875 -2.71875 L 3.5 -5 Z M 2.703125 -2.71875 "/></g></g></g><g fill="#ffffff" fill-opacity="1"><g transform="translate(158.658596, 86.679375)"><g><path d="M 2.015625 -1.203125 L 4.890625 -1.203125 L 4.890625 0 L 0.59375 0 L 0.59375 -7.0625 L 2.015625 -7.0625 Z M 2.015625 -1.203125 "/></g></g></g><g fill="#ffffff" fill-opacity="1"><g transform="translate(165.913948, 86.679375)"><g/></g></g><g fill="#ffffff" fill-opacity="1"><g transform="translate(171.013317, 86.679375)"><g><path d="M 2.015625 -2.9375 L 2.015625 -1.203125 L 5.28125 -1.203125 L 5.28125 0 L 0.59375 0 L 0.59375 -7.0625 L 5.1875 -7.0625 L 5.1875 -5.859375 L 2.015625 -5.859375 L 2.015625 -4.125 L 5.03125 -4.125 L 5.03125 -2.9375 Z M 2.015625 -2.9375 "/></g></g></g><g fill="#ffffff" fill-opacity="1"><g transform="translate(178.671663, 86.679375)"><g><path d="M 5.640625 -2.0625 C 5.640625 -1.644531 5.570312 -1.296875 5.4375 -1.015625 C 5.300781 -0.742188 5.109375 -0.523438 4.859375 -0.359375 C 4.617188 -0.191406 4.335938 -0.0703125 4.015625 0 C 3.691406 0.0625 3.351562 0.09375 3 0.09375 C 2.488281 0.09375 2.007812 0.03125 1.5625 -0.09375 C 1.125 -0.226562 0.734375 -0.390625 0.390625 -0.578125 L 0.953125 -1.71875 C 1.140625 -1.601562 1.3125 -1.503906 1.46875 -1.421875 C 1.625 -1.335938 1.78125 -1.269531 1.9375 -1.21875 C 2.09375 -1.175781 2.253906 -1.144531 2.421875 -1.125 C 2.597656 -1.101562 2.785156 -1.09375 2.984375 -1.09375 C 3.347656 -1.09375 3.644531 -1.160156 3.875 -1.296875 C 4.101562 -1.429688 4.21875 -1.671875 4.21875 -2.015625 C 4.21875 -2.203125 4.164062 -2.347656 4.0625 -2.453125 C 3.957031 -2.566406 3.816406 -2.660156 3.640625 -2.734375 C 3.472656 -2.804688 3.28125 -2.863281 3.0625 -2.90625 C 2.84375 -2.957031 2.617188 -3.015625 2.390625 -3.078125 C 2.171875 -3.140625 1.953125 -3.21875 1.734375 -3.3125 C 1.515625 -3.40625 1.316406 -3.53125 1.140625 -3.6875 C 0.972656 -3.851562 0.835938 -4.0625 0.734375 -4.3125 C 0.628906 -4.570312 0.578125 -4.890625 0.578125 -5.265625 C 0.578125 -5.585938 0.640625 -5.863281 0.765625 -6.09375 C 0.890625 -6.332031 1.0625 -6.53125 1.28125 -6.6875 C 1.507812 -6.851562 1.769531 -6.972656 2.0625 -7.046875 C 2.363281 -7.117188 2.6875 -7.15625 3.03125 -7.15625 C 3.539062 -7.15625 3.992188 -7.097656 4.390625 -6.984375 C 4.796875 -6.878906 5.160156 -6.75 5.484375 -6.59375 L 5.015625 -5.46875 C 4.765625 -5.59375 4.472656 -5.703125 4.140625 -5.796875 C 3.816406 -5.898438 3.445312 -5.953125 3.03125 -5.953125 C 2.738281 -5.953125 2.492188 -5.894531 2.296875 -5.78125 C 2.097656 -5.664062 2 -5.492188 2 -5.265625 C 2 -4.984375 2.085938 -4.769531 2.265625 -4.625 C 2.453125 -4.488281 2.675781 -4.382812 2.9375 -4.3125 C 3.207031 -4.238281 3.5 -4.171875 3.8125 -4.109375 C 4.132812 -4.046875 4.425781 -3.941406 4.6875 -3.796875 C 4.957031 -3.660156 5.179688 -3.457031 5.359375 -3.1875 C 5.546875 -2.914062 5.640625 -2.539062 5.640625 -2.0625 Z M 5.640625 -2.0625 "/></g></g></g><g fill="#ffffff" fill-opacity="1"><g transform="translate(186.72292, 86.679375)"><g><path d="M 3.671875 -5.859375 L 3.671875 0 L 2.25 0 L 2.25 -5.859375 L 0.359375 -5.859375 L 0.359375 -7.0625 L 5.546875 -7.0625 L 5.546875 -5.859375 Z M 3.671875 -5.859375 "/></g></g></g><g fill="#ffffff" fill-opacity="1"><g transform="translate(194.623052, 86.679375)"><g><path d="M 4.765625 -1.515625 L 2.25 -1.515625 L 1.703125 0 L 0.171875 0 L 2.75 -7.0625 L 4.265625 -7.0625 L 6.84375 0 L 5.3125 0 Z M 2.703125 -2.71875 L 4.296875 -2.71875 L 3.5 -5 Z M 2.703125 -2.71875 "/></g></g></g><g fill="#ffffff" fill-opacity="1"><g transform="translate(203.611259, 86.679375)"><g><path d="M 3.671875 -5.859375 L 3.671875 0 L 2.25 0 L 2.25 -5.859375 L 0.359375 -5.859375 L 0.359375 -7.0625 L 5.546875 -7.0625 L 5.546875 -5.859375 Z M 3.671875 -5.859375 "/></g></g></g><g fill="#ffffff" fill-opacity="1"><g transform="translate(211.511392, 86.679375)"><g><path d="M 2.015625 -2.9375 L 2.015625 -1.203125 L 5.28125 -1.203125 L 5.28125 0 L 0.59375 0 L 0.59375 -7.0625 L 5.1875 -7.0625 L 5.1875 -5.859375 L 2.015625 -5.859375 L 2.015625 -4.125 L 5.03125 -4.125 L 5.03125 -2.9375 Z M 2.015625 -2.9375 "/></g></g></g></svg>